<?xml version="1.0" ?><!DOCTYPE svg  PUBLIC '-//W3C//DTD SVG 1.1//EN'  'http://www.w3.org/Graphics/SVG/1.1/DTD/svg11.dtd'><svg enable-background="new 0 0 91 91" height="91px" id="Layer_1" version="1.1" viewBox="0 0 91 91" width="91px" xml:space="preserve" xmlns="http://www.w3.org/2000/svg" xmlns:xlink="http://www.w3.org/1999/xlink"><g><path d="M68.174,39.138c0-12.045-9.799-21.845-21.844-21.845s-21.844,9.8-21.844,21.845   c0,9.825,6.734,18.549,16.145,21.093l1.697,4.465c-5.104,0.368-13.082,1.606-13.082,5.739c0,5.731,15.336,5.897,17.084,5.897   s17.084-0.166,17.084-5.897c0-4.157-8.072-5.385-13.17-5.746l1.615-4.413C61.367,57.792,68.174,49.052,68.174,39.138z    M59.893,70.435c-1.055,0.985-5.979,2.497-13.563,2.497c-7.586,0-12.508-1.512-13.563-2.497c0.922-0.86,4.799-2.122,10.82-2.427   l1.152,3.033c0.252,0.66,0.885,1.096,1.59,1.096c0.004,0,0.006,0,0.01,0c0.711-0.005,1.342-0.449,1.586-1.116l1.104-3.015   C55.076,68.307,58.969,69.572,59.893,70.435z M46.33,64.539c-0.098,0-0.244,0.001-0.424,0.003l-2.414-6.353   c-0.203-0.533-0.66-0.93-1.217-1.055c-8.338-1.87-14.389-9.438-14.389-17.997c0-10.17,8.273-18.444,18.443-18.444   s18.443,8.274,18.443,18.444c0,8.641-6.119,16.225-14.553,18.033c-0.572,0.122-1.039,0.529-1.24,1.078l-2.303,6.292   C46.535,64.54,46.412,64.539,46.33,64.539z" fill="#010101"/><path d="M55.152,50.775c0.523-0.38,0.785-1.024,0.676-1.662l-1.344-7.83l5.689-5.545   c0.463-0.452,0.629-1.128,0.43-1.743s-0.732-1.063-1.373-1.157l-7.859-1.143l-3.518-7.124c-0.285-0.581-0.877-0.948-1.523-0.948   c-0.648,0-1.238,0.367-1.525,0.948l-3.516,7.124l-7.861,1.143c-0.641,0.094-1.174,0.542-1.373,1.157s-0.033,1.291,0.43,1.743   l5.691,5.545l-1.344,7.83c-0.109,0.638,0.152,1.282,0.676,1.662c0.297,0.216,0.646,0.325,1,0.325c0.27,0,0.541-0.064,0.791-0.195   l7.031-3.696l7.031,3.696C53.936,51.207,54.629,51.156,55.152,50.775z M47.121,43.783c-0.248-0.13-0.52-0.195-0.791-0.195   s-0.543,0.065-0.791,0.195l-4.773,2.51l0.912-5.316c0.094-0.551-0.09-1.114-0.49-1.505l-3.863-3.765l5.338-0.775   c0.555-0.081,1.033-0.429,1.281-0.931l2.387-4.837l2.387,4.837c0.248,0.502,0.727,0.85,1.281,0.931l5.336,0.775l-3.861,3.765   c-0.4,0.391-0.584,0.954-0.49,1.505l0.912,5.316L47.121,43.783z" fill="#010101"/></g></svg>