<?xml version="1.0" encoding="iso-8859-1"?>
<!-- Generator: Adobe Illustrator 19.0.0, SVG Export Plug-In . SVG Version: 6.00 Build 0)  -->
<svg version="1.1" id="Layer_1" xmlns="http://www.w3.org/2000/svg" xmlns:xlink="http://www.w3.org/1999/xlink" x="0px" y="0px"
	 viewBox="0 0 512 512" style="enable-background:new 0 0 512 512;" xml:space="preserve">
<g>
	<g>
		<path d="M511.994,211.367c-0.003-0.467-0.029-0.934-0.071-1.4c-0.009-0.101-0.016-0.203-0.027-0.303
			c-0.05-0.461-0.121-0.919-0.21-1.376c-0.028-0.144-0.06-0.285-0.091-0.427c-0.081-0.364-0.174-0.727-0.279-1.086
			c-0.04-0.137-0.078-0.274-0.121-0.41c-0.124-0.384-0.265-0.765-0.419-1.142c-0.066-0.161-0.134-0.322-0.204-0.481
			c-0.038-0.086-0.07-0.174-0.109-0.258L443.68,59.788c-2.729-5.915-8.646-9.701-15.159-9.701H83.478
			c-6.512,0-12.429,3.787-15.159,9.699L1.537,204.482c-0.039,0.086-0.071,0.172-0.109,0.258c-0.07,0.159-0.138,0.319-0.204,0.481
			c-0.152,0.376-0.293,0.755-0.416,1.139c-0.045,0.138-0.082,0.277-0.124,0.416c-0.106,0.358-0.198,0.72-0.278,1.083
			c-0.031,0.142-0.065,0.285-0.092,0.429c-0.089,0.456-0.159,0.915-0.21,1.376c-0.011,0.1-0.018,0.201-0.027,0.303
			c-0.042,0.466-0.068,0.934-0.071,1.4c0,0.038-0.006,0.073-0.006,0.111v66.783c0,9.22,7.475,16.696,16.696,16.696h16.696v150.261
			c0,9.22,7.475,16.696,16.696,16.696h66.783c9.22,0,16.696-7.475,16.696-16.696v-150.26h244.869v150.261
			c0,9.22,7.475,16.696,16.696,16.696h66.783c9.22,0,16.696-7.475,16.696-16.696V294.957h16.696c9.22,0,16.696-7.475,16.696-16.696
			v-66.783C512,211.44,511.994,211.405,511.994,211.367z M94.161,83.478H417.84l51.371,111.304H42.79L94.161,83.478z
			 M100.174,428.522H66.783V294.957h33.391V428.522z M445.217,428.522h-33.391V294.957h33.391V428.522z M478.609,261.565h-16.696
			H395.13H116.87H50.087H33.391v-33.391h445.217V261.565z"/>
	</g>
</g>
<g>
</g>
<g>
</g>
<g>
</g>
<g>
</g>
<g>
</g>
<g>
</g>
<g>
</g>
<g>
</g>
<g>
</g>
<g>
</g>
<g>
</g>
<g>
</g>
<g>
</g>
<g>
</g>
<g>
</g>
</svg>
